<?xml version="1.0"?>
<!DOCTYPE svg PUBLIC "-//W3C//DTD SVG 1.1//EN" "http://www.w3.org/Graphics/SVG/1.1/DTD/svg11.dtd">
<svg width="217.42719023999996mm" height="335.1292662400001mm" viewBox="0 0 217.42719023999996 335.1292662400001" xmlns="http://www.w3.org/2000/svg" version="1.1">
<g id="Part" transform="translate(175.889229,167.897627) scale(1,-1)">
<path id="Part_f0000"  d="M 3.806954751439664e-14 107.95000000000002 L 6.350000000000038 107.95000000000002 M 6.350000000000025 107.95000000000007 L 6.350000000000016 101.60000000000007 L 6.350000000000016 88.90000000000006 L 6.350000000000025 82.55000000000005 L 3.242961454930084e-14 82.55000000000001 M 1.9739765377835326e-14 82.55000000000005 L 1.1192196236860392e-14 88.90000000000006 L 1.1192196236860387e-14 101.60000000000005 L 1.9739765377835332e-14 107.95000000000006 Z " stroke="#000000" stroke-width="0.35 px" style="stroke-width:0.35;stroke-miterlimit:4;stroke-dasharray:none;stroke-linecap:square;fill:url(#shape color);fill-opacity:1;fill-rule: evenodd"/>
<path id="Part_f0001"  d="M 3.242961454930084e-14 82.55 L 6.3500000000000325 82.55 L 6.350000000000039 82.55 L 3.947953075567058e-14 82.55 L 1.973976537783533e-14 82.55000000000005 Z " stroke="#000000" stroke-width="0.35 px" style="stroke-width:0.35;stroke-miterlimit:4;stroke-dasharray:none;stroke-linecap:square;fill:url(#shape color);fill-opacity:1;fill-rule: evenodd"/>
<path id="Part_f0002"  d="M 3.947953075567058e-14 82.55 L 6.350000000000039 82.55 L 6.3499999999999845 -165.10000000000005 L -1.5509815654013467e-14 -165.10000000000005 L 2.9609648066752974e-14 82.55000000000004 Z " stroke="#000000" stroke-width="0.35 px" style="stroke-width:0.35;stroke-miterlimit:4;stroke-dasharray:none;stroke-linecap:square;fill:url(#shape color);fill-opacity:1;fill-rule: evenodd"/>
<path id="Part_f0003"  d="M -1.5509815654013477e-14 -165.10000000000005 L 6.3499999999999845 -165.10000000000005 L 6.349999999999942 -165.10000000000005 L -5.780931289223193e-14 -165.10000000000005 L 2.960964806675287e-14 -165.10000000000014 Z " stroke="#000000" stroke-width="0.35 px" style="stroke-width:0.35;stroke-miterlimit:4;stroke-dasharray:none;stroke-linecap:square;fill:url(#shape color);fill-opacity:1;fill-rule: evenodd"/>
<path id="Part_f0004"  d="M -5.780931289223193e-14 -165.10000000000005 L 6.349999999999942 -165.10000000000005 L 6.350000000000015 165.10000000000005 L 1.5509815654013467e-14 165.10000000000005 L -2.9609648066753006e-14 -165.10000000000014 Z " stroke="#000000" stroke-width="0.35 px" style="stroke-width:0.35;stroke-miterlimit:4;stroke-dasharray:none;stroke-linecap:square;fill:url(#shape color);fill-opacity:1;fill-rule: evenodd"/>
<path id="Part_f0005"  d="M 1.5509815654013477e-14 165.10000000000005 L 6.350000000000015 165.10000000000005 L 6.350000000000057 165.10000000000002 L 5.780931289223193e-14 165.10000000000002 L -2.960964806675288e-14 165.1000000000001 Z " stroke="#000000" stroke-width="0.35 px" style="stroke-width:0.35;stroke-miterlimit:4;stroke-dasharray:none;stroke-linecap:square;fill:url(#shape color);fill-opacity:1;fill-rule: evenodd"/>
<path id="Part_f0006"  d="M 2.9609648066753e-14 165.10000000000005 L 2.960964806675298e-14 107.95000000000006 L 6.350000000000045 107.95000000000002 L 6.350000000000057 165.10000000000002 L 5.780931289223193e-14 165.10000000000002 Z " stroke="#000000" stroke-width="0.35 px" style="stroke-width:0.35;stroke-miterlimit:4;stroke-dasharray:none;stroke-linecap:square;fill:url(#shape color);fill-opacity:1;fill-rule: evenodd"/>
<path id="Part_f0007"  d="M 2.9609648066752974e-14 107.95000000000007 L 1.9739765377835335e-14 107.95000000000007 L 6.350000000000038 107.95000000000002 L 6.350000000000045 107.95000000000002 L 4.511946372076638e-14 107.95000000000002 Z " stroke="#000000" stroke-width="0.35 px" style="stroke-width:0.35;stroke-miterlimit:4;stroke-dasharray:none;stroke-linecap:square;fill:url(#shape color);fill-opacity:1;fill-rule: evenodd"/>
<path id="Part_f0008"  d="M 3.806954751439664e-14 107.95000000000002 M 1.9739765377835335e-14 107.95000000000007 L 1.1192196236860392e-14 101.60000000000007 L 1.1192196236860387e-14 88.90000000000006 L 1.9739765377835322e-14 82.55000000000005 L 3.947953075567058e-14 82.55 L -1.5509815654013477e-14 -165.10000000000005 L -5.780931289223193e-14 -165.10000000000005 L 1.5509815654013477e-14 165.10000000000005 L 5.780931289223193e-14 165.10000000000002 L 2.960964806675298e-14 107.95000000000006 L 1.9739765377835335e-14 107.95000000000007 Z " stroke="#000000" stroke-width="0.35 px" style="stroke-width:0.35;stroke-miterlimit:4;stroke-dasharray:none;stroke-linecap:square;fill:url(#shape color);fill-opacity:1;fill-rule: evenodd"/>
<path id="Part_f0009"  d="M 6.350000000000038 107.95000000000002 L 6.350000000000045 107.95000000000002 L 6.350000000000057 165.10000000000002 L 6.349999999999975 165.1000000000001 L 6.349999999999976 -165.10000000000014 L 6.350000000000035 -165.10000000000014 L 6.350000000000035 82.55000000000004 L 6.350000000000025 82.55000000000005 M 6.350000000000025 82.55000000000005 L 6.3500000000000165 88.90000000000006 L 6.3500000000000165 101.60000000000005 L 6.350000000000025 107.95000000000006 Z " stroke="#000000" stroke-width="0.35 px" style="stroke-width:0.35;stroke-miterlimit:4;stroke-dasharray:none;stroke-linecap:square;fill:url(#shape color);fill-opacity:1;fill-rule: evenodd"/>
<path id="Part_f0010"  d="M 31.84758599999997 -145.99970799999994 L 6.847585999999973 -145.99970799999994 L 6.847585999999973 -145.99970799999994 L 31.84758599999997 -145.99970799999994 L 31.84758599999997 -145.99970799999994 Z " stroke="#000000" stroke-width="0.35 px" style="stroke-width:0.35;stroke-miterlimit:4;stroke-dasharray:none;stroke-linecap:square;fill:url(#shape color);fill-opacity:1;fill-rule: evenodd"/>
<path id="Part_f0011"  d="M 6.847585999999969 -164.99970799999994 L 6.847585999999969 -164.99970799999994 L 31.847585999999968 -164.99970799999994 L 31.84758599999997 -164.99970799999994 L 6.847585999999969 -164.99970799999994 Z " stroke="#000000" stroke-width="0.35 px" style="stroke-width:0.35;stroke-miterlimit:4;stroke-dasharray:none;stroke-linecap:square;fill:url(#shape color);fill-opacity:1;fill-rule: evenodd"/>
<path id="Part_f0012"  d="M 6.847585999999973 -145.99970799999994 L 6.847585999999973 -145.99970799999994 L 6.847585999999969 -164.99970799999994 L 6.847585999999969 -164.99970799999994 L 6.847585999999973 -145.99970799999994 Z " stroke="#000000" stroke-width="0.35 px" style="stroke-width:0.35;stroke-miterlimit:4;stroke-dasharray:none;stroke-linecap:square;fill:url(#shape color);fill-opacity:1;fill-rule: evenodd"/>
<path id="Part_f0013"  d="M 31.84758599999997 -164.99970799999994 L 31.84758599999997 -145.99970799999994 L 31.84758599999997 -145.99970799999994 L 31.847585999999968 -164.99970799999994 L 31.84758599999997 -164.99970799999994 Z " stroke="#000000" stroke-width="0.35 px" style="stroke-width:0.35;stroke-miterlimit:4;stroke-dasharray:none;stroke-linecap:square;fill:url(#shape color);fill-opacity:1;fill-rule: evenodd"/>
<path id="Part_f0014"  d="M 6.847585999999969 -164.99970799999994 L 6.847585999999973 -145.99970799999994 L 31.84758599999997 -145.99970799999994 L 31.847585999999968 -164.99970799999994 L 6.847585999999969 -164.99970799999994 Z " stroke="#000000" stroke-width="0.35 px" style="stroke-width:0.35;stroke-miterlimit:4;stroke-dasharray:none;stroke-linecap:square;fill:url(#shape color);fill-opacity:1;fill-rule: evenodd"/>
<path id="Part_f0015"  d="M 31.84758599999997 -145.99970799999994 L 6.847585999999973 -145.99970799999994 L 6.847585999999969 -164.99970799999994 L 31.847585999999968 -164.99970799999994 L 31.84758599999997 -145.99970799999994 Z " stroke="#000000" stroke-width="0.35 px" style="stroke-width:0.35;stroke-miterlimit:4;stroke-dasharray:none;stroke-linecap:square;fill:url(#shape color);fill-opacity:1;fill-rule: evenodd"/>
<path id="Part_f0016"  d="M 31.847585999999904 165.068758 L 6.847585999999904 165.068758 L 6.847585999999904 165.068758 L 31.847585999999904 165.068758 L 31.847585999999904 165.068758 Z " stroke="#000000" stroke-width="0.35 px" style="stroke-width:0.35;stroke-miterlimit:4;stroke-dasharray:none;stroke-linecap:square;fill:url(#shape color);fill-opacity:1;fill-rule: evenodd"/>
<path id="Part_f0017"  d="M 6.847585999999908 146.068758 L 6.847585999999908 146.068758 L 31.847585999999907 146.068758 L 31.847585999999907 146.068758 L 6.847585999999908 146.068758 Z " stroke="#000000" stroke-width="0.35 px" style="stroke-width:0.35;stroke-miterlimit:4;stroke-dasharray:none;stroke-linecap:square;fill:url(#shape color);fill-opacity:1;fill-rule: evenodd"/>
<path id="Part_f0018"  d="M 6.847585999999904 165.068758 L 6.847585999999904 165.068758 L 6.847585999999908 146.068758 L 6.847585999999908 146.068758 L 6.847585999999904 165.068758 Z " stroke="#000000" stroke-width="0.35 px" style="stroke-width:0.35;stroke-miterlimit:4;stroke-dasharray:none;stroke-linecap:square;fill:url(#shape color);fill-opacity:1;fill-rule: evenodd"/>
<path id="Part_f0019"  d="M 31.847585999999907 146.068758 L 31.847585999999904 165.068758 L 31.847585999999904 165.068758 L 31.847585999999907 146.068758 L 31.847585999999907 146.068758 Z " stroke="#000000" stroke-width="0.35 px" style="stroke-width:0.35;stroke-miterlimit:4;stroke-dasharray:none;stroke-linecap:square;fill:url(#shape color);fill-opacity:1;fill-rule: evenodd"/>
<path id="Part_f0020"  d="M 6.847585999999908 146.068758 L 6.847585999999904 165.068758 L 31.847585999999904 165.068758 L 31.847585999999907 146.068758 L 6.847585999999908 146.068758 Z " stroke="#000000" stroke-width="0.35 px" style="stroke-width:0.35;stroke-miterlimit:4;stroke-dasharray:none;stroke-linecap:square;fill:url(#shape color);fill-opacity:1;fill-rule: evenodd"/>
<path id="Part_f0021"  d="M 31.847585999999904 165.068758 L 6.847585999999904 165.068758 L 6.847585999999908 146.068758 L 31.847585999999907 146.068758 L 31.847585999999904 165.068758 Z " stroke="#000000" stroke-width="0.35 px" style="stroke-width:0.35;stroke-miterlimit:4;stroke-dasharray:none;stroke-linecap:square;fill:url(#shape color);fill-opacity:1;fill-rule: evenodd"/>
<path id="Part_f0022"  d="M 33.056321999999994 165.76598800000002 L 33.056321999999994 -164.43401199999997 L 33.056321999999994 -164.43401199999997 L 33.056321999999994 165.76598800000002 L 33.056321999999994 165.76598800000002 Z " stroke="#000000" stroke-width="0.35 px" style="stroke-width:0.35;stroke-miterlimit:4;stroke-dasharray:none;stroke-linecap:square;fill:url(#shape color);fill-opacity:1;fill-rule: evenodd"/>
<path id="Part_f0023"  d="M 39.406321999999996 -164.43401199999997 L 39.406321999999996 -164.43401199999997 L 39.406321999999996 165.76598800000002 L 39.406321999999996 165.76598800000002 L 39.406321999999996 -164.43401199999997 Z " stroke="#000000" stroke-width="0.35 px" style="stroke-width:0.35;stroke-miterlimit:4;stroke-dasharray:none;stroke-linecap:square;fill:url(#shape color);fill-opacity:1;fill-rule: evenodd"/>
<path id="Part_f0024"  d="M 33.056321999999994 -164.43401199999997 L 33.056321999999994 -164.43401199999997 L 39.406321999999996 -164.43401199999997 L 39.406321999999996 -164.43401199999997 L 33.056321999999994 -164.43401199999997 Z " stroke="#000000" stroke-width="0.35 px" style="stroke-width:0.35;stroke-miterlimit:4;stroke-dasharray:none;stroke-linecap:square;fill:url(#shape color);fill-opacity:1;fill-rule: evenodd"/>
<path id="Part_f0025"  d="M 39.406321999999996 165.76598800000002 L 33.056321999999994 165.76598800000002 L 33.056321999999994 165.76598800000002 L 39.406321999999996 165.76598800000002 L 39.406321999999996 165.76598800000002 Z " stroke="#000000" stroke-width="0.35 px" style="stroke-width:0.35;stroke-miterlimit:4;stroke-dasharray:none;stroke-linecap:square;fill:url(#shape color);fill-opacity:1;fill-rule: evenodd"/>
<path id="Part_f0026"  d="M 39.406321999999996 -164.43401199999997 L 33.056321999999994 -164.43401199999997 L 33.056321999999994 165.76598800000002 L 39.406321999999996 165.76598800000002 L 39.406321999999996 -164.43401199999997 Z " stroke="#000000" stroke-width="0.35 px" style="stroke-width:0.35;stroke-miterlimit:4;stroke-dasharray:none;stroke-linecap:square;fill:url(#shape color);fill-opacity:1;fill-rule: evenodd"/>
<path id="Part_f0027"  d="M 33.056321999999994 165.76598800000002 L 33.056321999999994 -164.43401199999997 L 39.406321999999996 -164.43401199999997 L 39.406321999999996 165.76598800000002 L 33.056321999999994 165.76598800000002 Z " stroke="#000000" stroke-width="0.35 px" style="stroke-width:0.35;stroke-miterlimit:4;stroke-dasharray:none;stroke-linecap:square;fill:url(#shape color);fill-opacity:1;fill-rule: evenodd"/>
<path id="Part_f0028"  d="M 9.323578000000005 126.680976 M 9.32357799999999 126.680976 L 9.323577999999978 124.96067342399515 L 9.323577999999966 119.9861871733355 L 9.323577999999959 112.29658002038705 L 9.323577999999955 102.72514021672036 L 9.323577999999957 92.30908178125344 L 9.323577999999962 82.17714626726821 L 9.323577999999971 73.4272861008827 L 9.323577999999983 67.00768439919395 L 9.323577999999998 63.61400461696354 L 9.323578000000012 63.614004616963534 L 9.323578000000024 67.00768439919395 L 9.323578000000033 73.42728610088268 L 9.323578000000039 82.17714626726818 L 9.32357800000004 92.30908178125343 L 9.323578000000037 102.72514021672035 L 9.32357800000003 112.29658002038704 L 9.323578000000017 119.98618717333548 L 9.323578000000005 124.96067342399515 L 9.32357799999999 126.680976 L 28.37357800000001 126.68097599999999 M 28.373578000000016 126.68097599999999 L 28.373578000000002 124.96067342399515 L 28.373577999999988 119.98618717333548 L 28.373577999999988 112.29658002038704 L 28.37357799999998 102.72514021672036 L 28.37357799999998 92.30908178125343 L 28.373577999999988 82.1771462672682 L 28.373577999999995 73.4272861008827 L 28.37357800000001 67.00768439919395 L 28.373578000000023 63.614004616963534 L 28.373578000000037 63.61400461696353 L 28.373578000000045 67.00768439919395 L 28.37357800000006 73.42728610088268 L 28.373578000000066 82.17714626726818 L 28.373578000000066 92.30908178125341 L 28.373578000000066 102.72514021672035 L 28.37357800000006 112.29658002038703 L 28.373578000000045 119.98618717333548 L 28.37357800000003 124.96067342399515 L 28.373578000000016 126.68097599999999 Z " stroke="#000000" stroke-width="0.35 px" style="stroke-width:0.35;stroke-miterlimit:4;stroke-dasharray:none;stroke-linecap:square;fill:url(#shape color);fill-opacity:1;fill-rule: evenodd"/>
<path id="Part_f0029"  d="M 9.323578000000005 126.680976 M 9.32357799999999 126.680976 L 9.323577999999978 124.96067342399515 L 9.323577999999966 119.9861871733355 L 9.323577999999959 112.29658002038705 L 9.323577999999955 102.72514021672036 L 9.323577999999957 92.30908178125344 L 9.323577999999962 82.17714626726821 L 9.323577999999971 73.4272861008827 L 9.323577999999983 67.00768439919395 L 9.323577999999998 63.61400461696354 L 9.323578000000012 63.614004616963534 L 9.323578000000024 67.00768439919395 L 9.323578000000033 73.42728610088268 L 9.323578000000039 82.17714626726818 L 9.32357800000004 92.30908178125343 L 9.323578000000037 102.72514021672035 L 9.32357800000003 112.29658002038704 L 9.323578000000017 119.98618717333548 L 9.323578000000005 124.96067342399515 L 9.32357799999999 126.680976 Z M 9.323577999999998 96.93097599999999 M 9.323577999999998 96.93097599999999 L 9.323577999999998 96.93097599999999 Z " stroke="#000000" stroke-width="0.35 px" style="stroke-width:0.35;stroke-miterlimit:4;stroke-dasharray:none;stroke-linecap:square;fill:url(#shape color);fill-opacity:1;fill-rule: evenodd"/>
<path id="Part_f0030"  d="M 28.37357800000001 126.68097599999999 M 28.373578000000016 126.68097599999999 L 28.373578000000002 124.96067342399515 L 28.373577999999988 119.98618717333548 L 28.373577999999988 112.29658002038704 L 28.37357799999998 102.72514021672036 L 28.37357799999998 92.30908178125343 L 28.373577999999988 82.1771462672682 L 28.373577999999995 73.4272861008827 L 28.37357800000001 67.00768439919395 L 28.373578000000023 63.614004616963534 L 28.373578000000037 63.61400461696353 L 28.373578000000045 67.00768439919395 L 28.37357800000006 73.42728610088268 L 28.373578000000066 82.17714626726818 L 28.373578000000066 92.30908178125341 L 28.373578000000066 102.72514021672035 L 28.37357800000006 112.29658002038703 L 28.373578000000045 119.98618717333548 L 28.37357800000003 124.96067342399515 L 28.373578000000016 126.68097599999999 Z " stroke="#000000" stroke-width="0.35 px" style="stroke-width:0.35;stroke-miterlimit:4;stroke-dasharray:none;stroke-linecap:square;fill:url(#shape color);fill-opacity:1;fill-rule: evenodd"/>
<path id="Part_f0031"  d="M 9.323577999999998 96.93097599999999 M 9.323577999999998 96.93097599999999 L 9.323577999999998 96.93097599999999 L 20.323577999999998 96.93097599999999 M 20.323578000000005 96.93097599999997 L 20.323578000000005 96.93097599999997 Z " stroke="#000000" stroke-width="0.35 px" style="stroke-width:0.35;stroke-miterlimit:4;stroke-dasharray:none;stroke-linecap:square;fill:url(#shape color);fill-opacity:1;fill-rule: evenodd"/>
<path id="Part_f0032"  d="M 20.323577999999998 96.93097599999999 M 20.323578000000005 96.93097599999997 L 20.323578000000005 96.93097599999997 Z " stroke="#000000" stroke-width="0.35 px" style="stroke-width:0.35;stroke-miterlimit:4;stroke-dasharray:none;stroke-linecap:square;fill:url(#shape color);fill-opacity:1;fill-rule: evenodd"/>
<path id="Part_f0033"  d="M 9.323578000000008 -72.50455399999997 M 9.32357799999998 -72.50455399999998 L 9.323577999999975 -74.22485657600483 L 9.323577999999971 -79.19934282666448 L 9.323577999999971 -86.88894997961292 L 9.323577999999973 -96.4603897832796 L 9.323577999999978 -106.87644821874652 L 9.323577999999985 -117.00838373273174 L 9.323577999999994 -125.75824389911725 L 9.323578000000003 -132.177845600806 L 9.323578000000012 -135.57152538303643 L 9.323578000000019 -135.57152538303643 L 9.323578000000024 -132.17784560080602 L 9.323578000000026 -125.75824389911729 L 9.323578000000024 -117.0083837327318 L 9.32357800000002 -106.87644821874656 L 9.323578000000014 -96.46038978327964 L 9.323578000000007 -86.88894997961296 L 9.323577999999996 -79.1993428266645 L 9.323577999999987 -74.22485657600484 L 9.32357799999998 -72.50455399999998 L 28.373578000000013 -72.50455399999998 M 28.373577999999988 -72.50455399999998 L 28.37357799999998 -74.22485657600483 L 28.37357799999998 -79.19934282666448 L 28.37357799999998 -86.88894997961292 L 28.37357799999998 -96.4603897832796 L 28.373577999999988 -106.87644821874652 L 28.373577999999995 -117.00838373273174 L 28.373578000000002 -125.75824389911725 L 28.373578000000016 -132.177845600806 L 28.373578000000023 -135.57152538303643 L 28.37357800000003 -135.57152538303643 L 28.37357800000003 -132.17784560080602 L 28.373578000000037 -125.75824389911729 L 28.37357800000003 -117.00838373273179 L 28.37357800000003 -106.87644821874656 L 28.373578000000023 -96.46038978327964 L 28.373578000000016 -86.88894997961296 L 28.37357800000001 -79.1993428266645 L 28.373577999999995 -74.22485657600484 L 28.373577999999988 -72.50455399999998 Z " stroke="#000000" stroke-width="0.35 px" style="stroke-width:0.35;stroke-miterlimit:4;stroke-dasharray:none;stroke-linecap:square;fill:url(#shape color);fill-opacity:1;fill-rule: evenodd"/>
<path id="Part_f0034"  d="M 9.323578000000008 -72.50455399999997 M 9.32357799999998 -72.50455399999998 L 9.323577999999975 -74.22485657600483 L 9.323577999999971 -79.19934282666448 L 9.323577999999971 -86.88894997961292 L 9.323577999999973 -96.4603897832796 L 9.323577999999978 -106.87644821874652 L 9.323577999999985 -117.00838373273174 L 9.323577999999994 -125.75824389911725 L 9.323578000000003 -132.177845600806 L 9.323578000000012 -135.57152538303643 L 9.323578000000019 -135.57152538303643 L 9.323578000000024 -132.17784560080602 L 9.323578000000026 -125.75824389911729 L 9.323578000000024 -117.0083837327318 L 9.32357800000002 -106.87644821874656 L 9.323578000000014 -96.46038978327964 L 9.323578000000007 -86.88894997961296 L 9.323577999999996 -79.1993428266645 L 9.323577999999987 -74.22485657600484 L 9.32357799999998 -72.50455399999998 Z M 9.323578 -102.25455399999998 M 9.323577999999998 -102.25455399999998 L 9.323577999999998 -102.25455399999998 Z " stroke="#000000" stroke-width="0.35 px" style="stroke-width:0.35;stroke-miterlimit:4;stroke-dasharray:none;stroke-linecap:square;fill:url(#shape color);fill-opacity:1;fill-rule: evenodd"/>
<path id="Part_f0035"  d="M 28.373578000000013 -72.50455399999998 M 28.373577999999988 -72.50455399999998 L 28.37357799999998 -74.22485657600483 L 28.37357799999998 -79.19934282666448 L 28.37357799999998 -86.88894997961292 L 28.37357799999998 -96.4603897832796 L 28.373577999999988 -106.87644821874652 L 28.373577999999995 -117.00838373273174 L 28.373578000000002 -125.75824389911725 L 28.373578000000016 -132.177845600806 L 28.373578000000023 -135.57152538303643 L 28.37357800000003 -135.57152538303643 L 28.37357800000003 -132.17784560080602 L 28.373578000000037 -125.75824389911729 L 28.37357800000003 -117.00838373273179 L 28.37357800000003 -106.87644821874656 L 28.373578000000023 -96.46038978327964 L 28.373578000000016 -86.88894997961296 L 28.37357800000001 -79.1993428266645 L 28.373577999999995 -74.22485657600484 L 28.373577999999988 -72.50455399999998 Z " stroke="#000000" stroke-width="0.35 px" style="stroke-width:0.35;stroke-miterlimit:4;stroke-dasharray:none;stroke-linecap:square;fill:url(#shape color);fill-opacity:1;fill-rule: evenodd"/>
<path id="Part_f0036"  d="M 9.323578 -102.25455399999998 M 9.323577999999998 -102.25455399999998 L 9.323577999999998 -102.25455399999998 L 20.323577999999998 -102.254554 M 20.323577999999994 -102.25455399999998 L 20.323577999999994 -102.25455399999998 Z " stroke="#000000" stroke-width="0.35 px" style="stroke-width:0.35;stroke-miterlimit:4;stroke-dasharray:none;stroke-linecap:square;fill:url(#shape color);fill-opacity:1;fill-rule: evenodd"/>
<path id="Part_f0037"  d="M 20.323577999999998 -102.254554 M 20.323577999999994 -102.25455399999998 L 20.323577999999994 -102.25455399999998 Z " stroke="#000000" stroke-width="0.35 px" style="stroke-width:0.35;stroke-miterlimit:4;stroke-dasharray:none;stroke-linecap:square;fill:url(#shape color);fill-opacity:1;fill-rule: evenodd"/>
<path id="Part_f0038"  d="M 6.780783999999999 165.76598800000002 L 6.780783999999999 -164.43401199999997 L 6.780783999999999 -164.43401199999997 L 6.780783999999999 165.76598800000002 L 6.780783999999999 165.76598800000002 Z " stroke="#000000" stroke-width="0.35 px" style="stroke-width:0.35;stroke-miterlimit:4;stroke-dasharray:none;stroke-linecap:square;fill:url(#shape color);fill-opacity:1;fill-rule: evenodd"/>
<path id="Part_f0039"  d="M 38.530784 -164.43401199999997 L 38.530784 -164.43401199999997 L 38.530784 165.76598800000002 L 38.530784 165.76598800000002 L 38.530784 -164.43401199999997 Z " stroke="#000000" stroke-width="0.35 px" style="stroke-width:0.35;stroke-miterlimit:4;stroke-dasharray:none;stroke-linecap:square;fill:url(#shape color);fill-opacity:1;fill-rule: evenodd"/>
<path id="Part_f0040"  d="M 6.780783999999999 -164.43401199999997 L 6.780783999999999 -164.43401199999997 L 38.530784 -164.43401199999997 L 38.530784 -164.43401199999997 L 6.780783999999999 -164.43401199999997 Z " stroke="#000000" stroke-width="0.35 px" style="stroke-width:0.35;stroke-miterlimit:4;stroke-dasharray:none;stroke-linecap:square;fill:url(#shape color);fill-opacity:1;fill-rule: evenodd"/>
<path id="Part_f0041"  d="M 38.530784 165.76598800000002 L 6.780783999999999 165.76598800000002 L 6.780783999999999 165.76598800000002 L 38.530784 165.76598800000002 L 38.530784 165.76598800000002 Z " stroke="#000000" stroke-width="0.35 px" style="stroke-width:0.35;stroke-miterlimit:4;stroke-dasharray:none;stroke-linecap:square;fill:url(#shape color);fill-opacity:1;fill-rule: evenodd"/>
<path id="Part_f0042"  d="M 38.530784 -164.43401199999997 L 6.780783999999999 -164.43401199999997 L 6.780783999999999 165.76598800000002 L 38.530784 165.76598800000002 L 38.530784 -164.43401199999997 Z " stroke="#000000" stroke-width="0.35 px" style="stroke-width:0.35;stroke-miterlimit:4;stroke-dasharray:none;stroke-linecap:square;fill:url(#shape color);fill-opacity:1;fill-rule: evenodd"/>
<path id="Part_f0043"  d="M 6.780783999999999 165.76598800000002 L 6.780783999999999 -164.43401199999997 L 38.530784 -164.43401199999997 L 38.530784 165.76598800000002 L 6.780783999999999 165.76598800000002 Z " stroke="#000000" stroke-width="0.35 px" style="stroke-width:0.35;stroke-miterlimit:4;stroke-dasharray:none;stroke-linecap:square;fill:url(#shape color);fill-opacity:1;fill-rule: evenodd"/>
<path id="Part_f0044"  d="M 6.780784000000001 53.27294400000001 L 6.780784000000001 -61.02705599999999 L 6.780784000000001 -61.02705599999999 L 6.780784000000001 53.27294400000001 L 6.780784000000001 53.27294400000001 Z " stroke="#000000" stroke-width="0.35 px" style="stroke-width:0.35;stroke-miterlimit:4;stroke-dasharray:none;stroke-linecap:square;fill:url(#shape color);fill-opacity:1;fill-rule: evenodd"/>
<path id="Part_f0045"  d="M 32.180784 -61.02705599999999 L 32.180784 -61.02705599999999 L 32.180784 53.27294400000001 L 32.180784 53.27294400000001 L 32.180784 -61.02705599999999 Z " stroke="#000000" stroke-width="0.35 px" style="stroke-width:0.35;stroke-miterlimit:4;stroke-dasharray:none;stroke-linecap:square;fill:url(#shape color);fill-opacity:1;fill-rule: evenodd"/>
<path id="Part_f0046"  d="M 6.780784000000001 -61.02705599999999 L 6.780784000000001 -61.02705599999999 L 32.180784 -61.02705599999999 L 32.180784 -61.02705599999999 L 6.780784000000001 -61.02705599999999 Z " stroke="#000000" stroke-width="0.35 px" style="stroke-width:0.35;stroke-miterlimit:4;stroke-dasharray:none;stroke-linecap:square;fill:url(#shape color);fill-opacity:1;fill-rule: evenodd"/>
<path id="Part_f0047"  d="M 32.180784 53.27294400000001 L 6.780784000000001 53.27294400000001 L 6.780784000000001 53.27294400000001 L 32.180784 53.27294400000001 L 32.180784 53.27294400000001 Z " stroke="#000000" stroke-width="0.35 px" style="stroke-width:0.35;stroke-miterlimit:4;stroke-dasharray:none;stroke-linecap:square;fill:url(#shape color);fill-opacity:1;fill-rule: evenodd"/>
<path id="Part_f0048"  d="M 32.180784 -61.02705599999999 L 6.780784000000001 -61.02705599999999 L 6.780784000000001 53.27294400000001 L 32.180784 53.27294400000001 L 32.180784 -61.02705599999999 Z " stroke="#000000" stroke-width="0.35 px" style="stroke-width:0.35;stroke-miterlimit:4;stroke-dasharray:none;stroke-linecap:square;fill:url(#shape color);fill-opacity:1;fill-rule: evenodd"/>
<path id="Part_f0049"  d="M 6.780784000000001 53.27294400000001 L 6.780784000000001 -61.02705599999999 L 32.180784 -61.02705599999999 L 32.180784 53.27294400000001 L 6.780784000000001 53.27294400000001 Z " stroke="#000000" stroke-width="0.35 px" style="stroke-width:0.35;stroke-miterlimit:4;stroke-dasharray:none;stroke-linecap:square;fill:url(#shape color);fill-opacity:1;fill-rule: evenodd"/>
<title>b'track'</title>
</g>
<g id="Part001" transform="translate(175.889229,167.897627) scale(1,-1)">
<path id="Part001_f0000"  d="M -173.67377 165.09999999999997 L -173.67377 165.09999999999997 L -21.273769999999985 165.09999999999997 L -21.273769999999985 165.09999999999997 L -173.67377 165.09999999999997 Z " stroke="#000000" stroke-width="0.35 px" style="stroke-width:0.35;stroke-miterlimit:4;stroke-dasharray:none;stroke-linecap:square;fill:url(#shape color);fill-opacity:1;fill-rule: evenodd"/>
<path id="Part001_f0001"  d="M -21.273769999999985 165.09999999999997 L -21.273769999999985 101.59999999999995 L -21.273769999999985 101.59999999999995 L -21.273769999999985 165.09999999999997 L -21.273769999999985 165.09999999999997 Z " stroke="#000000" stroke-width="0.35 px" style="stroke-width:0.35;stroke-miterlimit:4;stroke-dasharray:none;stroke-linecap:square;fill:url(#shape color);fill-opacity:1;fill-rule: evenodd"/>
<path id="Part001_f0002"  d="M -21.273769999999985 101.59999999999995 L -21.273769999999985 101.59999999999995 L -78.42376999999998 101.59999999999995 L -78.42376999999998 101.59999999999995 L -21.273769999999985 101.59999999999995 Z " stroke="#000000" stroke-width="0.35 px" style="stroke-width:0.35;stroke-miterlimit:4;stroke-dasharray:none;stroke-linecap:square;fill:url(#shape color);fill-opacity:1;fill-rule: evenodd"/>
<path id="Part001_f0003"  d="M -78.42376999999998 101.59999999999995 L -78.42376999999998 101.59999999999995 L -78.42376999999998 76.19999999999996 L -78.42376999999998 76.19999999999996 L -78.42376999999998 101.59999999999995 Z " stroke="#000000" stroke-width="0.35 px" style="stroke-width:0.35;stroke-miterlimit:4;stroke-dasharray:none;stroke-linecap:square;fill:url(#shape color);fill-opacity:1;fill-rule: evenodd"/>
<path id="Part001_f0004"  d="M -78.42376999999998 76.19999999999996 L -78.42376999999998 76.19999999999996 L -21.273769999999985 76.19999999999996 L -21.273769999999985 76.19999999999996 L -78.42376999999998 76.19999999999996 Z " stroke="#000000" stroke-width="0.35 px" style="stroke-width:0.35;stroke-miterlimit:4;stroke-dasharray:none;stroke-linecap:square;fill:url(#shape color);fill-opacity:1;fill-rule: evenodd"/>
<path id="Part001_f0005"  d="M -21.273769999999985 76.19999999999996 L -21.273769999999985 -165.1 L -21.273769999999985 -165.1 L -21.273769999999985 76.19999999999996 L -21.273769999999985 76.19999999999996 Z " stroke="#000000" stroke-width="0.35 px" style="stroke-width:0.35;stroke-miterlimit:4;stroke-dasharray:none;stroke-linecap:square;fill:url(#shape color);fill-opacity:1;fill-rule: evenodd"/>
<path id="Part001_f0006"  d="M -21.273769999999985 -165.1 L -21.273769999999985 -165.1 L -173.67376999999996 -165.1 L -173.67376999999996 -165.1 L -21.273769999999985 -165.1 Z " stroke="#000000" stroke-width="0.35 px" style="stroke-width:0.35;stroke-miterlimit:4;stroke-dasharray:none;stroke-linecap:square;fill:url(#shape color);fill-opacity:1;fill-rule: evenodd"/>
<path id="Part001_f0007"  d="M -173.67377 -165.1 L -173.67377 76.19999999999996 L -173.67377 76.19999999999996 L -173.67376999999996 -165.1 L -173.67376999999996 -165.1 Z " stroke="#000000" stroke-width="0.35 px" style="stroke-width:0.35;stroke-miterlimit:4;stroke-dasharray:none;stroke-linecap:square;fill:url(#shape color);fill-opacity:1;fill-rule: evenodd"/>
<path id="Part001_f0008"  d="M -173.67377 76.19999999999996 L -116.52376999999997 76.19999999999996 L -116.52376999999997 76.19999999999996 L -173.67377 76.19999999999996 L -173.67377 76.19999999999996 Z " stroke="#000000" stroke-width="0.35 px" style="stroke-width:0.35;stroke-miterlimit:4;stroke-dasharray:none;stroke-linecap:square;fill:url(#shape color);fill-opacity:1;fill-rule: evenodd"/>
<path id="Part001_f0009"  d="M -116.52376999999997 76.19999999999996 L -116.52376999999997 101.59999999999995 L -116.52376999999997 101.59999999999995 L -116.52376999999997 76.19999999999996 L -116.52376999999997 76.19999999999996 Z " stroke="#000000" stroke-width="0.35 px" style="stroke-width:0.35;stroke-miterlimit:4;stroke-dasharray:none;stroke-linecap:square;fill:url(#shape color);fill-opacity:1;fill-rule: evenodd"/>
<path id="Part001_f0010"  d="M -116.52376999999998 101.59999999999995 L -173.67377 101.59999999999995 L -173.67377 101.59999999999995 L -116.52376999999997 101.59999999999995 L -116.52376999999997 101.59999999999995 Z " stroke="#000000" stroke-width="0.35 px" style="stroke-width:0.35;stroke-miterlimit:4;stroke-dasharray:none;stroke-linecap:square;fill:url(#shape color);fill-opacity:1;fill-rule: evenodd"/>
<path id="Part001_f0011"  d="M -173.67377 101.59999999999995 L -173.67377 165.09999999999997 L -173.67377 165.09999999999997 L -173.67377 101.59999999999995 L -173.67377 101.59999999999995 Z " stroke="#000000" stroke-width="0.35 px" style="stroke-width:0.35;stroke-miterlimit:4;stroke-dasharray:none;stroke-linecap:square;fill:url(#shape color);fill-opacity:1;fill-rule: evenodd"/>
<path id="Part001_f0012"  d="M -173.67377 165.09999999999997 L -21.273769999999985 165.09999999999997 L -21.273769999999985 101.59999999999995 L -78.42376999999998 101.59999999999995 L -78.42376999999998 76.19999999999996 L -21.273769999999985 76.19999999999996 L -21.273769999999985 -165.1 L -173.67376999999996 -165.1 L -173.67377 76.19999999999996 L -116.52376999999997 76.19999999999996 L -116.52376999999997 101.59999999999995 L -173.67377 101.59999999999995 L -173.67377 165.09999999999997 Z " stroke="#000000" stroke-width="0.35 px" style="stroke-width:0.35;stroke-miterlimit:4;stroke-dasharray:none;stroke-linecap:square;fill:url(#shape color);fill-opacity:1;fill-rule: evenodd"/>
<path id="Part001_f0013"  d="M -173.67377 165.09999999999997 L -173.67377 101.59999999999995 L -116.52376999999997 101.59999999999995 L -116.52376999999997 76.19999999999996 L -173.67377 76.19999999999996 L -173.67376999999996 -165.1 L -21.273769999999985 -165.1 L -21.273769999999985 76.19999999999996 L -78.42376999999998 76.19999999999996 L -78.42376999999998 101.59999999999995 L -21.273769999999985 101.59999999999995 L -21.273769999999985 165.09999999999997 L -173.67377 165.09999999999997 Z " stroke="#000000" stroke-width="0.35 px" style="stroke-width:0.35;stroke-miterlimit:4;stroke-dasharray:none;stroke-linecap:square;fill:url(#shape color);fill-opacity:1;fill-rule: evenodd"/>
<path id="Part001_f0014"  d="M -173.75758999999996 -145.38401199999996 L -173.75758999999996 -164.43401199999997 L -173.75758999999996 -164.43401199999997 L -173.75758999999996 -145.38401199999996 L -173.75758999999996 -145.38401199999996 Z " stroke="#000000" stroke-width="0.35 px" style="stroke-width:0.35;stroke-miterlimit:4;stroke-dasharray:none;stroke-linecap:square;fill:url(#shape color);fill-opacity:1;fill-rule: evenodd"/>
<path id="Part001_f0015"  d="M -21.35758999999996 -164.43401199999997 L -21.35758999999996 -164.43401199999997 L -21.35758999999996 -145.38401199999996 L -21.35758999999996 -145.38401199999996 L -21.35758999999996 -164.43401199999997 Z " stroke="#000000" stroke-width="0.35 px" style="stroke-width:0.35;stroke-miterlimit:4;stroke-dasharray:none;stroke-linecap:square;fill:url(#shape color);fill-opacity:1;fill-rule: evenodd"/>
<path id="Part001_f0016"  d="M -173.75758999999996 -164.43401199999997 L -173.75758999999996 -164.43401199999997 L -21.35758999999996 -164.43401199999997 L -21.35758999999996 -164.43401199999997 L -173.75758999999996 -164.43401199999997 Z " stroke="#000000" stroke-width="0.35 px" style="stroke-width:0.35;stroke-miterlimit:4;stroke-dasharray:none;stroke-linecap:square;fill:url(#shape color);fill-opacity:1;fill-rule: evenodd"/>
<path id="Part001_f0017"  d="M -21.35758999999996 -145.38401199999996 L -173.75758999999996 -145.38401199999996 L -173.75758999999996 -145.38401199999996 L -21.35758999999996 -145.38401199999996 L -21.35758999999996 -145.38401199999996 Z " stroke="#000000" stroke-width="0.35 px" style="stroke-width:0.35;stroke-miterlimit:4;stroke-dasharray:none;stroke-linecap:square;fill:url(#shape color);fill-opacity:1;fill-rule: evenodd"/>
<path id="Part001_f0018"  d="M -21.35758999999996 -164.43401199999997 L -173.75758999999996 -164.43401199999997 L -173.75758999999996 -145.38401199999996 L -21.35758999999996 -145.38401199999996 L -21.35758999999996 -164.43401199999997 Z " stroke="#000000" stroke-width="0.35 px" style="stroke-width:0.35;stroke-miterlimit:4;stroke-dasharray:none;stroke-linecap:square;fill:url(#shape color);fill-opacity:1;fill-rule: evenodd"/>
<path id="Part001_f0019"  d="M -173.75758999999996 -145.38401199999996 L -173.75758999999996 -164.43401199999997 L -21.35758999999996 -164.43401199999997 L -21.35758999999996 -145.38401199999996 L -173.75758999999996 -145.38401199999996 Z " stroke="#000000" stroke-width="0.35 px" style="stroke-width:0.35;stroke-miterlimit:4;stroke-dasharray:none;stroke-linecap:square;fill:url(#shape color);fill-opacity:1;fill-rule: evenodd"/>
<path id="Part001_f0020"  d="M -173.75758999999996 164.83685599999998 L -173.75758999999996 145.78685599999997 L -173.75758999999996 145.78685599999997 L -173.75758999999996 164.83685599999998 L -173.75758999999996 164.83685599999998 Z " stroke="#000000" stroke-width="0.35 px" style="stroke-width:0.35;stroke-miterlimit:4;stroke-dasharray:none;stroke-linecap:square;fill:url(#shape color);fill-opacity:1;fill-rule: evenodd"/>
<path id="Part001_f0021"  d="M -21.35758999999996 145.78685599999997 L -21.35758999999996 145.78685599999997 L -21.35758999999996 164.83685599999998 L -21.35758999999996 164.83685599999998 L -21.35758999999996 145.78685599999997 Z " stroke="#000000" stroke-width="0.35 px" style="stroke-width:0.35;stroke-miterlimit:4;stroke-dasharray:none;stroke-linecap:square;fill:url(#shape color);fill-opacity:1;fill-rule: evenodd"/>
<path id="Part001_f0022"  d="M -173.75758999999996 145.78685599999997 L -173.75758999999996 145.78685599999997 L -21.35758999999996 145.78685599999997 L -21.35758999999996 145.78685599999997 L -173.75758999999996 145.78685599999997 Z " stroke="#000000" stroke-width="0.35 px" style="stroke-width:0.35;stroke-miterlimit:4;stroke-dasharray:none;stroke-linecap:square;fill:url(#shape color);fill-opacity:1;fill-rule: evenodd"/>
<path id="Part001_f0023"  d="M -21.35758999999996 164.83685599999998 L -173.75758999999996 164.83685599999998 L -173.75758999999996 164.83685599999998 L -21.35758999999996 164.83685599999998 L -21.35758999999996 164.83685599999998 Z " stroke="#000000" stroke-width="0.35 px" style="stroke-width:0.35;stroke-miterlimit:4;stroke-dasharray:none;stroke-linecap:square;fill:url(#shape color);fill-opacity:1;fill-rule: evenodd"/>
<path id="Part001_f0024"  d="M -21.35758999999996 145.78685599999997 L -173.75758999999996 145.78685599999997 L -173.75758999999996 164.83685599999998 L -21.35758999999996 164.83685599999998 L -21.35758999999996 145.78685599999997 Z " stroke="#000000" stroke-width="0.35 px" style="stroke-width:0.35;stroke-miterlimit:4;stroke-dasharray:none;stroke-linecap:square;fill:url(#shape color);fill-opacity:1;fill-rule: evenodd"/>
<path id="Part001_f0025"  d="M -173.75758999999996 164.83685599999998 L -173.75758999999996 145.78685599999997 L -21.35758999999996 145.78685599999997 L -21.35758999999996 164.83685599999998 L -173.75758999999996 164.83685599999998 Z " stroke="#000000" stroke-width="0.35 px" style="stroke-width:0.35;stroke-miterlimit:4;stroke-dasharray:none;stroke-linecap:square;fill:url(#shape color);fill-opacity:1;fill-rule: evenodd"/>
<title>b'pan'</title>
</g>
</svg>